<?xml version="1.0" encoding="utf-8"?>
<!-- Generator: Adobe Illustrator 23.0.3, SVG Export Plug-In . SVG Version: 6.00 Build 0)  -->
<svg version="1.1" id="Layer_1" xmlns="http://www.w3.org/2000/svg" xmlns:xlink="http://www.w3.org/1999/xlink" x="0px" y="0px"
	 viewBox="0 0 148 148" style="enable-background:new 0 0 148 148;" xml:space="preserve">
<g>
	<path d="M54.8,84.2c-3.1,4.9-6.2,9.9-8.4,15.2c-2,4.9-0.4,9.6,3.6,13c3.8,3.3,8.2,4.4,12.9,2.2c4.6-2.2,7.5-5.9,7.6-12.3
		c-1.1-6.6-5.6-12.7-9.8-18.7C59.2,81.4,56.2,82,54.8,84.2z M58,107.1c-2.5-0.1-4.1-1.6-3.8-4.2c0.4-2.8,2.2-7,3.8-6.8
		c2.6,0.4,3.5,4.3,4.3,6.9C61.9,105.8,60.5,107.2,58,107.1z"/>
	<path d="M37.2,48.8c-0.1,4,1.9,5.8,5.8,5.8c5,0,10,0,15,0c5.2,0,10.3,0,15.5,0c3.6,0,5.6-1.7,5.6-5.5c0-4.7,0-9.3,0-14
		c0-4-1.9-5.7-5.8-5.6c-10.2,0.1-20.3,0.1-30.5,0c-4.1,0-5.7,1.9-5.6,5.8C37.3,39.8,37.3,44.3,37.2,48.8z M45.5,41.1
		c0.1-2.5,0.7-3.5,3.3-3.4c6.3,0.2,12.6,0.2,18.9,0c3.7-0.2,2.9,2.2,2.9,4.2c0,2,0.8,4.5-2.9,4.2c-3.3-0.2-6.6-0.1-9.9-0.1
		c-2.5,0-5-0.3-7.5,0.1C46.1,46.7,45.3,44.8,45.5,41.1z"/>
	<path d="M134.8,40.6c-5.3,0-10.7,0-16,0c-9.8,0-14.6,4.9-14.7,14.7c0,12.5,0,25,0,37.5c0,3.7-1.1,6-5.3,6.1c-5,0.1-3-3.5-3-5.6
		c-0.1-22.2,0-44.3-0.1-66.5c0-9.2-5.1-14.1-14.3-14.1c-15.5,0-31,0-46.5,0c-8.9,0-14.1,5-14.4,13.7c-0.1,3.8,0,7.7,0,11.5
		c0,30,0,60-0.1,90c0,1.8,1.4,4.7-2.5,4.6c-3-0.1-5.6,0.7-5.5,4.2c0.1,3.8,3.1,4.1,6.1,4.1c13.2,0,26.3,0,39.5,0c13.5,0,27,0,40.5,0
		c2.8,0,5.2-0.8,5.4-3.9c0.2-3.1-1.9-4.6-4.8-4.4c-3.1,0.2-3.6-1.2-3.5-3.8c0.1-5.8,0.2-11.7,0-17.5c-0.1-3.2,1-3.8,4-3.9
		c8.3-0.5,12.7-5.6,12.8-14.1c0.1-8,0.1-16-0.1-24c-0.1-2.8,0.8-3.6,3.6-3.6c7.4-0.2,13.1-4.9,13-11.7c0-4.9,2-5.4,5.8-5.1
		c3,0.3,5.5-0.8,5.4-4.3C140,41.3,137.6,40.6,134.8,40.6z M29,26.6c0-3.8,1.7-5.6,5.4-5.6c15.8,0,31.6,0,47.4,0
		c3.9,0,5.6,1.9,5.6,5.9c-0.1,10.8-0.2,21.6,0,32.4c0,2.9-1,3.5-3.7,3.5c-8.6-0.2-17.3-0.1-26-0.1c-8.5,0-17-0.1-25.5,0.1
		c-2.6,0-3.4-0.7-3.4-3.3C29.1,48.5,29.1,37.5,29,26.6z M83.5,132.5c-16.8-0.2-33.6-0.2-50.4,0c-3.4,0-4.1-1-4.1-4.2
		c0.1-17.8,0.1-35.6,0-53.4c0-3.1,0.9-3.9,4-3.9c17,0.1,33.9,0.1,50.9,0c2.9,0,3.6,1,3.6,3.7c-0.1,9.1-0.1,18.3-0.1,27.4
		c0,8.8-0.1,17.6,0.1,26.5C87.4,131.7,86.5,132.5,83.5,132.5z M115.3,57.3c-2.4,0.1-3.1-0.8-3-3.2c0.2-3.7,2-5.4,5.9-5.4
		c2.2-0.4,2.7,0.9,2.7,3.1C120.7,55.6,118.9,57.2,115.3,57.3z"/>
</g>
</svg>
