<?xml version="1.0" encoding="utf-8"?>
<!-- Generator: Adobe Illustrator 23.0.3, SVG Export Plug-In . SVG Version: 6.00 Build 0)  -->
<svg version="1.1" id="Layer_1" xmlns="http://www.w3.org/2000/svg" xmlns:xlink="http://www.w3.org/1999/xlink" x="0px" y="0px"
	 viewBox="0 0 148 148" style="enable-background:new 0 0 148 148;" xml:space="preserve">
<path d="M134.6,90.3c0-11.5,0-23,0-34.5c0-6.4-0.7-12.6-3.6-18.4c-8.1-16.6-27.9-25.9-45.8-21.6c-0.8,0.2-1.8,0.5-2.2,1.1
	C79.2,23,74.8,21.6,70,18c-1-0.8-2.5-1-3.7-1.5c-13.5-5.5-27.5-3.6-41.5-3.4c-3.5,0.1-6.3,2.6-6.6,6.4C17,32.8,17.4,38.8,32.7,37.8
	c4.1-0.3,8.3,0,12.5,0c3.4,0,6.6,0.5,9.9,1.3c3.1,0.7,4.7,2.1,4.5,5.8c-0.4,7-0.2,14-0.1,21c0.1,6.9,3.8,13,9.8,13.1
	c7.6,0.1,7.3,4.2,6.9,9.3c-0.1,1.7-0.1,3.3,0.1,5c0.7,11,9.1,19.2,20.1,19.7c3,0.1,6,0.3,9,0c3.1-0.2,4.5,0.6,4.3,4
	c-0.3,4.8-0.2,9.7,0,14.5c0.3,6.4,3.4,9.2,9.8,9.4c1.3,0,2.7,0,4,0c8.4,0,11.1-2.7,11.1-11C134.7,116.6,134.6,103.4,134.6,90.3z
	 M59.4,31.9c-8.9-4.1-18.7-2-28.1-2.3c-4.9-0.2-6.5-2.2-5.1-7c0.3-0.9,0.6-1.5,1.6-1.5c14.8,0.3,30-2.1,43.3,7.2
	C68.3,33.1,65.1,34.5,59.4,31.9z M109.6,102.9c0.1,1.2-0.6,1.8-1.8,1.8c-1,0-2,0-3,0C84.4,106,84,95.9,84.5,82.3
	c0.1-1.8,0.5-2.8,2.5-2.7c3.7,0.1,7.3,0.1,11,0.1c2.7,0,2.5,1.2,1.6,3.1c-0.9,2.1-2.5,3.5-4,5c-2.1,2-3.8,4.2-1.4,6.8
	c2.6,2.8,4.9,1.1,7.3-0.9c2.5-2.1,4.1-4.8,6.4-8.1C110.6,91.7,109.3,97.4,109.6,102.9z M122.4,132.5c-2,0-4.6,0.9-4.3-2.8
	c0.2-2.3,0-4.6,0-7c0-1.7,0-3.3,0-5c0-4.7,2-6.1,6.7-4.9c1.7,0.4,1.5,1.5,1.5,2.6c0,4.8-0.1,9.6,0.1,14.4
	C126.5,133.2,124.3,132.5,122.4,132.5z M122.3,104.8c-3-0.1-4.5-0.5-4.3-4c0.3-4.1,0.4-8.3-0.5-12.4c-1.8-9.2-8.6-16-18-16.7
	C91.3,71,83,71.3,74.6,71.2c-5.8-0.1-6.3-0.9-6.7-6.7c-0.8-12.7-0.9-24.9,11.8-32.7c3.7-2.3,5.1-7.7,10.3-7.9
	c8.8-0.4,17.3,0.3,24.6,6c7.2,5.6,11.2,13.1,11.5,22.2c0.2,8,0.1,16,0.1,24c0,0,0,0,0.1,0c0,8.2-0.1,16.3,0.1,24.5
	C126.5,103.8,125.7,104.9,122.3,104.8z"/>
</svg>
